PathFileType	4	(X/Y/Z)	OpenSim_Sub03_EMGStiffKnee_Accel.trc
DataRate	CameraRate	NumFrames	NumMarkers	Units	OrigDataRate	OrigDataStartFrame	OrigNumFrames
100	100	34	8	m	100	2849	7597
Frame#	Time	torso_imu_offset_imu	pelvis_imu_offset_imu	tibia_r_imu_offset_imu	femur_r_imu_offset_imu	tibia_l_imu_offset_imu	femur_l_imu_offset_imu	toes_r_imu_offset_imu	toes_l_imu_offset_imu
				X1	Y1	Z1	X2	Y2	Z2	X3	Y3	Z3	X4	Y4	Z4	X5	Y5	Z5	X6	Y6	Z6	X7	Y7	Z7	X8		Y8	Z8	

2849	28.48000000	9.26422663	-0.04900172	5.12754056	8.78932797	2.59928444	1.29809070	9.81967977	0.19824882	0.02967621	9.41880653	-0.72667952	-0.01478471	9.99938701	-0.65415733	2.44459852	8.23618976	3.84340397	0.96349784	5.62833016	-1.75695875	8.14760139	11.89003672	-2.24236842	6.75843193
2850	28.49000000	9.16976651	0.00193339	5.10993146	8.94860173	2.92363723	1.29458441	10.10630019	0.61171699	0.11765342	9.52436421	-0.54939706	0.07745075	9.91328641	0.34059220	2.31410318	7.89900303	3.38142027	1.07664806	5.78209352	-1.82282416	8.11800803	13.28327523	-2.36907074	6.03091528
2851	28.50000000	9.05553465	0.02171091	5.06862718	9.02598362	2.72083738	1.28730364	10.08511214	1.32298634	0.04846725	9.80972644	-0.12724750	0.32058208	9.72400612	0.74468516	1.91336601	7.76781601	3.26723781	0.76435919	5.64898291	-2.03981589	8.06937221	14.20449004	-2.79633333	4.95507915
2852	28.51000000	9.02653846	0.06885779	5.08705390	8.90687042	2.57406002	1.28425686	10.10366487	1.50331824	-0.04876199	9.94307673	0.24863073	0.58142355	9.42639521	0.41695493	1.10262296	7.70883034	3.74673248	0.72740942	5.87300394	-1.75951643	8.07161683	14.60451936	-4.18953103	2.96090107
2853	28.52000000	8.98676347	0.09268378	5.10027311	8.88088640	2.43549563	1.09961436	10.00608629	1.52541294	0.13888488	9.82984395	0.40810307	1.08412522	8.93053084	0.38499027	0.88909258	7.68015553	4.52166870	0.82033316	6.06220408	-1.71563908	7.98528699	14.64719554	-5.43027861	0.72128021
2854	28.53000000	8.88811000	0.11662792	5.16570638	8.56257695	1.81998481	0.84529341	9.93020971	1.77416942	0.03146865	10.21118088	0.51557399	1.22593719	8.41390416	0.41103766	1.18994113	7.87461355	5.37039010	1.13283161	6.09280050	-1.87888099	7.98525469	14.23492160	-6.07831248	-1.15647101
2855	28.54000000	8.74717199	0.12240467	5.11635632	8.39709124	1.48664651	0.67805635	10.69419860	2.76073094	-0.04292644	10.91188290	-0.50139536	0.01277503	8.06382852	-0.09437840	1.38832111	7.64330059	6.02097315	1.25657557	5.56530571	-2.17410356	8.34800583	13.28202107	-5.76765457	-1.68871489
2856	28.55000000	8.82834336	0.24694702	5.01767656	8.35146587	1.53382528	0.30935640	11.41088954	3.69675359	-0.11235498	10.69974398	-1.35373351	-0.97755196	8.02137685	-1.02845549	1.08162772	7.52253183	5.91396858	1.06598331	5.79978547	-0.81640609	8.70936053	13.09136955	-4.84633320	-1.09214812
2857	28.56000000	9.12038788	0.36917553	4.94569500	8.37631061	1.74089552	-0.26802184	11.11364088	3.61588475	-0.04863525	10.51893207	-1.26975810	-0.17084611	7.79246711	-1.89601594	1.04620183	7.22014841	4.74715900	0.49022470	6.10905390	-1.03318072	8.51416288	10.84840168	-2.58214817	1.71215628
2858	28.57000000	9.30054771	0.40115084	4.88589803	8.62031246	2.04171669	-0.66681685	10.82112783	2.67600451	0.12260864	10.62620317	-0.48265507	0.60281292	8.04802216	-3.24803180	1.65733776	7.16427215	2.62444673	0.40692042	6.10041695	-1.38365156	8.37341000	10.32156745	-1.86345693	-1.29744614
2859	28.58000000	9.40996010	0.45294914	5.01339579	9.09261158	2.23052801	-0.59572943	10.84993725	1.62332782	0.19970603	10.24360927	-0.45321910	0.21487336	9.10719098	-3.24049150	0.98444321	7.88812157	0.28279068	0.58149156	6.10343740	-1.41245370	8.23890502	15.76790215	-0.80208539	-7.26860647
2860	28.59000000	9.75698912	0.49578697	5.18748124	9.75328536	2.11192520	-0.18140656	10.86580552	0.79044645	0.64813156	10.08351015	-0.89486241	0.11842620	10.16904445	-2.60614962	1.09548526	8.92116501	-1.25611992	0.97107580	6.26639599	-1.41232111	7.99297274	5.73797643	-9.97816300	-10.61870435
2861	28.60000000	10.27701169	0.59916947	5.38763111	10.60589167	1.77697295	0.87363331	10.98038741	0.12051819	0.91676449	10.12672170	-1.20485827	0.22235579	12.15072707	-3.80133359	-0.50924567	11.89853358	-1.90969252	1.75066593	6.30084600	-1.23254195	8.20781547	12.00671304	0.65607025	12.83954793
2862	28.61000000	11.45919127	1.06352579	5.57044624	11.82576232	1.14656379	2.96107656	11.76478899	-0.80695814	1.32191655	10.36346082	-1.88879541	-0.00837427	14.40369601	-3.09456510	-2.76540243	17.87543857	-1.05608284	2.22707026	6.09417503	-1.44582552	8.77406538	10.76431929	16.51155997	26.48612362
2863	28.62000000	13.55186026	1.74149570	5.85030087	13.14522274	0.04145502	5.34773306	13.28535350	-1.60562737	1.61999858	11.04773378	-2.81615173	-0.63930468	17.61083879	7.89525823	1.59314771	21.12007387	2.62452558	0.16278636	5.85424721	-1.83505407	9.22848267	15.01205684	16.36458346	17.51062104
2864	28.63000000	15.18495952	2.40883357	6.04833464	15.18975380	-1.49799050	6.69310186	14.29615604	-2.04004886	2.46757814	11.94885161	-3.54195415	-1.20330232	21.09338063	15.66471462	6.95937116	17.96358227	6.18487365	-2.67060038	5.64363775	-1.94234604	9.37618137	26.60860877	5.81764153	9.77296687
2865	28.64000000	15.17253015	2.78474036	6.40763420	16.98199722	-2.36454764	7.02082700	14.30957217	-2.47163414	2.82265285	12.00691602	-3.27529975	-0.73903293	17.32086400	5.51149344	1.14994355	14.02143405	6.45943931	-3.22116758	5.53873325	-2.11482220	9.50962249	23.88252739	0.08274696	13.82180183
2866	28.65000000	13.84845043	3.11197369	6.54476615	17.42784339	-1.63844913	6.75071281	14.45793241	-3.20234015	2.78941073	12.65433835	-2.12475273	-0.15109075	12.51867772	-5.80224206	-3.43322966	11.28723170	5.50072132	-3.52067196	5.10711054	-3.49877215	9.99030835	15.12195566	-5.79061776	13.41283165
2867	28.66000000	12.76233609	3.73947607	6.33606089	15.86167723	0.07882562	5.99226037	15.41403619	-3.56035737	2.57019082	13.52665143	-1.46214156	-0.12273618	13.76708414	-14.32594822	-4.82208244	10.12106062	3.64769980	-3.16998849	5.65069136	-5.28324182	10.03333641	10.16696031	-6.67180611	12.43225244
2868	28.67000000	12.35190919	4.46309716	6.00774139	13.45361432	1.84317707	5.02705530	15.12461775	-3.66288239	2.13316747	13.00801290	-0.74140654	1.74556559	11.38632290	-16.03148007	-0.56282839	10.96163320	-0.18180777	-0.26131717	5.59331804	-5.83431609	9.69622400	7.26298705	-2.56565600	12.08204553
2869	28.68000000	11.75182758	4.68804350	5.62931365	11.82495922	3.21068751	4.38507661	13.23380705	-2.81972882	2.22195803	12.12803896	0.83896668	2.45435692	7.81114451	-7.38476567	5.28379100	10.48496283	-3.42769452	1.42413444	6.71561768	-5.83384470	8.64827776	4.72170511	1.40412035	11.35550965
2870	28.69000000	10.69155094	4.37961864	5.19061987	10.83380945	3.86605749	4.19088889	11.24056490	-1.97592953	0.78716122	11.02681948	1.91568006	2.25603830	8.11932516	0.58951972	5.55606392	9.56152980	-4.70346728	0.08831682	11.11973559	-4.66172315	9.14741468	4.94396296	1.65507091	11.54042579
2871	28.70000000	9.67394952	3.99751456	4.75955855	9.81303475	3.72119234	4.30471119	10.29141325	-1.24021476	0.46825786	10.27060907	2.39743372	3.66284332	9.38658362	0.69138916	-2.02007169	9.29139557	-5.90357021	-1.39710903	12.03067361	-5.28059024	9.28959969	5.46788183	1.72347344	11.14822292
2872	28.71000000	8.80215783	3.61315072	4.35956402	8.53803740	2.86340675	4.23528806	10.08229587	-0.03802763	-0.39872828	10.34906057	2.96792450	4.48673649	8.39733415	-5.41860648	-3.92534010	8.66306449	-6.61900582	-1.87351311	13.69608491	-4.45404464	10.98972740	5.84903277	2.04125069	10.53150483
2873	28.72000000	8.02924600	3.04905574	3.94720477	7.40246422	1.44144405	3.99859179	9.47964383	3.25386647	-1.63393290	10.81073738	2.85268941	3.05083544	8.60752461	-7.14894413	-1.84282832	8.62371215	-5.51052428	-2.69129706	13.07106648	-5.43667067	10.62223907	6.64066292	1.68180213	10.13547793
2874	28.73000000	7.77195160	2.54391157	3.67783850	6.82694224	-0.12561478	3.91961431	8.16879224	9.78077247	-2.56398561	10.51920943	1.86268402	1.62899698	10.77047698	-6.11164601	-0.82105744	9.13843673	-2.79611120	-3.24242328	9.01250572	-4.25933553	9.40957759	6.73242103	0.65272989	10.13277260
2875	28.74000000	7.86754062	2.23911213	3.56797477	6.81458790	-1.41354884	3.98168816	7.20039818	14.30363867	-3.82564799	9.81977124	1.07531806	1.47105727	9.24337958	-4.89545213	-0.42918210	9.60768073	0.04804666	-2.46561486	13.94534474	1.05295847	13.65965180	5.72264957	1.22336671	10.84729409
2876	28.75000000	7.72836162	2.29097599	3.56448037	7.32691484	-2.28999555	4.14409644	7.96392483	14.12209655	-2.01138750	9.80823271	0.74822770	1.56779011	9.01204227	-1.41284838	-1.63601182	9.76981059	1.86283994	-1.71339771	13.63422288	2.78566232	22.89461482	5.53258371	2.39441608	10.90225203
2877	28.76000000	7.50548274	2.64681259	3.55282546	8.09351943	-2.63147277	4.28782061	8.30396172	14.20587279	-1.83237997	10.55240924	0.49664231	2.00223658	10.65591733	1.82076501	-0.21404317	9.11946517	2.11743170	-1.65406888	2.51136000	-3.49763891	18.29088947	5.75037910	1.91356506	10.66743771
2878	28.77000000	7.52466258	2.96969334	3.62831971	8.85251166	-2.42011279	4.22406407	7.19311230	8.32579065	-1.22354950	11.42105122	0.65289513	2.13847664	10.04917127	3.12062634	1.30057973	8.71926328	0.97050116	-1.61301848	-2.97780782	-7.62118069	8.58504010	6.03417804	0.98970171	10.56538265
2879	28.78000000	7.79695695	3.24737680	3.68175682	9.39353016	-1.73076485	4.01907218	5.21183305	0.46897564	2.36232958	10.91698672	0.92158163	1.96658066	9.52864773	1.34818661	-0.02015939	9.12724951	-0.65559335	-1.32593630	0.74806188	-8.71867951	9.27410431	5.52429635	1.10366556	10.86363661
2880	28.79000000	7.67981892	3.32385192	3.87748314	9.61802790	-0.98909551	3.84747737	3.90155446	-0.19808526	0.33286062	9.75932570	0.95717767	2.26950447	9.84001874	-1.26515024	-0.74504990	9.16905134	-1.70593296	-1.24033335	2.11154419	-5.67580997	9.96253609	5.51164635	1.40754974	10.88171413
2881	28.80000000	7.50633702	3.15767630	4.11699321	9.57698854	-0.34744053	3.78870386	5.25733770	0.59860509	-0.32084132	8.93383588	1.11550604	2.43460960	9.62448039	-1.00954227	-0.30254285	9.05531827	-1.65190086	-1.36638238	2.07979373	-5.39531581	9.11232975	5.78447116	1.19105111	10.64113729
2882	28.81000000	7.61251738	3.05929196	4.19800772	9.41076098	0.27215952	3.89427880	7.35154190	1.09626990	0.57627777	8.62273118	1.37233535	2.27101476	9.51891262	0.23878491	-0.23872192	9.32192105	-0.72542938	-1.18398642	1.93647524	-7.51654350	8.00543433	6.05843752	0.98114501	10.47589293
